<?xml version="1.0" standalone="no"?>
<!DOCTYPE svg PUBLIC "-//W3C//DTD SVG 20010904//EN"
 "http://www.w3.org/TR/2001/REC-SVG-20010904/DTD/svg10.dtd">
<svg version="1.0" xmlns="http://www.w3.org/2000/svg"
 width="512.000000pt" height="512.000000pt" viewBox="0 0 512.000000 512.000000"
 preserveAspectRatio="xMidYMid meet">
<metadata>
Created by potrace 1.14, written by Peter Selinger 2001-2017
</metadata>
<g transform="translate(0.000000,512.000000) scale(0.100000,-0.100000)"
fill="#000000" stroke="none">
<path d="M0 4605 l0 -125 68 0 c37 0 168 -5 292 -10 1066 -47 1934 -252 2980
-707 317 -138 543 -281 591 -374 21 -43 17 -61 -24 -106 -24 -27 -37 -29 -37
-8 0 24 -85 105 -170 162 -440 296 -1255 602 -2030 762 -399 82 -896 137
-1400 156 -85 3 -181 8 -213 11 l-57 5 0 -1996 0 -1995 148 98 c888 594 1824
918 2810 972 239 14 545 0 691 -30 163 -33 272 -101 338 -212 37 -61 73 -189
73 -259 0 -26 4 -50 8 -53 5 -3 66 26 136 64 489 267 755 545 882 925 l34 103
0 198 c0 190 -1 204 -29 301 -74 259 -212 490 -434 727 -675 723 -1986 1261
-3507 1440 -347 41 -783 70 -1142 76 -5 0 -8 -56 -8 -125z m2382 -1175 c94
-19 325 -90 356 -109 10 -6 8 -18 -9 -56 -69 -156 27 -325 184 -325 66 0 139
42 164 95 22 47 40 44 54 -7 14 -52 1 -81 -49 -115 -192 -129 -879 36 -1143
275 -147 133 -122 228 71 266 52 10 274 -4 372 -24z m1777 -389 c35 -25 59
-74 67 -135 7 -50 5 -49 124 -62 241 -25 436 -163 524 -372 136 -323 0 -775
-324 -1075 -67 -62 -218 -173 -225 -166 -2 2 1 42 7 89 27 231 -35 443 -166
574 -192 192 -548 248 -1021 161 -164 -31 -310 -68 -310 -79 0 -5 92 -8 205
-7 606 6 944 -103 1059 -341 16 -35 26 -64 21 -66 -4 -2 -36 6 -69 17 -160 53
-426 97 -723 121 -196 16 -857 8 -1068 -14 -180 -18 -337 -41 -432 -61 -37 -8
-70 -15 -73 -15 -13 0 42 68 119 148 211 218 512 407 801 501 147 48 245 68
406 84 l124 13 36 66 c135 246 363 467 605 585 135 66 251 78 313 34z"/>
</g>
</svg>
