<?xml version="1.0" encoding="UTF-8" standalone="no"?>
<!-- Created with Inkscape (http://www.inkscape.org/) -->

<svg
   width="196"
   height="279.2"
   version="1.1"
   viewBox="0 0 196 279.2"
   xml:space="preserve"
   id="svg356"
   sodipodi:docname="rockwayRoboticsLogoSimple.svg"
   inkscape:version="1.1.1 (3bf5ae0d25, 2021-09-20)"
   xmlns:inkscape="http://www.inkscape.org/namespaces/inkscape"
   xmlns:sodipodi="http://sodipodi.sourceforge.net/DTD/sodipodi-0.dtd"
   xmlns="http://www.w3.org/2000/svg"
   xmlns:svg="http://www.w3.org/2000/svg"><sodipodi:namedview
     id="namedview358"
     pagecolor="#505050"
     bordercolor="#eeeeee"
     borderopacity="1"
     inkscape:pageshadow="0"
     inkscape:pageopacity="0"
     inkscape:pagecheckerboard="0"
     showgrid="false"
     inkscape:zoom="2.9763609"
     inkscape:cx="67.364143"
     inkscape:cy="120.11312"
     inkscape:window-width="1908"
     inkscape:window-height="1011"
     inkscape:window-x="0"
     inkscape:window-y="0"
     inkscape:window-maximized="1"
     inkscape:current-layer="g354" /><defs
     id="defs92"><clipPath
       id="clipPath23"><path
         d="m0 209.4h147v-209.4h-147z"
         id="path2" /></clipPath><clipPath
       id="clipPath31"><path
         d="m30.6 111.7h19.2v-13.7h-19.2z"
         id="path5" /></clipPath><clipPath
       id="clipPath51"><path
         d="m0 209.4h147v-209.4h-147z"
         id="path8" /></clipPath><clipPath
       id="clipPath59"><path
         d="m15.5 114h9.8v-17.8h-9.8z"
         id="path11" /></clipPath><clipPath
       id="clipPath79"><path
         d="m0 209.4h147v-209.4h-147z"
         id="path14" /></clipPath><clipPath
       id="clipPath87"><path
         d="m16.2 111.4h9.1v-4h-9.1z"
         id="path17" /></clipPath><clipPath
       id="clipPath107"><path
         d="m0 209.4h147v-209.4h-147z"
         id="path20" /></clipPath><clipPath
       id="clipPath115"><path
         d="m15.5 102.2h9.7v-1.9h-9.7z"
         id="path23" /></clipPath><clipPath
       id="clipPath135"><path
         d="m0 209.4h147v-209.4h-147z"
         id="path26" /></clipPath><clipPath
       id="clipPath143"><path
         d="m22.5 113.7h1.6v-17.5h-1.6z"
         id="path29" /></clipPath><clipPath
       id="clipPath163"><path
         d="m0 209.4h147v-209.4h-147z"
         id="path32" /></clipPath><clipPath
       id="clipPath171"><path
         d="m25 112.2h5.9v-14h-5.9z"
         id="path35" /></clipPath><clipPath
       id="clipPath191"><path
         d="m34 108.1h0.5v-6.5h-0.5z"
         id="path38" /></clipPath><clipPath
       id="clipPath211"><path
         d="m36.3 108.6h0.6v-6.8h-0.6z"
         id="path41" /></clipPath><clipPath
       id="clipPath231"><path
         d="m39 108.9h0.7375v-6.8h-0.7375z"
         id="path44" /></clipPath><clipPath
       id="clipPath251"><path
         d="m44.625 108.5h0.15v-6.3h-0.15z"
         id="path47" /></clipPath><clipPath
       id="clipPath271"><path
         d="m46.8 108h0.4v-5.9h-0.4z"
         id="path50" /></clipPath><clipPath
       id="clipPath291"><path
         d="m54.1 99.9h13.3v-77.5h-13.3z"
         id="path53" /></clipPath><clipPath
       id="clipPath311"><path
         d="m31 23.086h46.5v-22.524h-46.5z"
         id="path56" /></clipPath><clipPath
       id="clipPath331"><path
         d="m76.8 16.016h6.7482v-14.416h-6.7482z"
         id="path59" /></clipPath><clipPath
       id="clipPath351"><path
         d="m2.4 207.1h94.131v-95h-94.131z"
         id="path62" /></clipPath><clipPath
       id="clipPath371"><path
         d="m32.3 168h84.2v-79.6h-84.2z"
         id="path65" /></clipPath><clipPath
       id="clipPath391"><path
         d="m54.5 148.1h39.8v-39.8h-39.8z"
         id="path68" /></clipPath><clipPath
       id="clipPath411"><path
         d="m42 108.7h0.5v-6.8h-0.5z"
         id="path71" /></clipPath><clipPath
       id="clipPath431"><path
         d="m80.077 97.605h56.623v-88.105h-56.623z"
         id="path74" /></clipPath><clipPath
       id="clipPath451"><path
         d="m129.6 31.7h16.796v-22.1h-16.796z"
         id="path77" /></clipPath><clipPath
       id="clipPath471"><path
         d="m121 17.103h18v-14.059h-18z"
         id="path80" /></clipPath><clipPath
       id="clipPath491"><path
         d="m120.2 34.6h11.9v-13h-11.9z"
         id="path83" /></clipPath><clipPath
       id="clipPath511"><path
         d="m85.1 91.8h36.906v-57.015h-36.906z"
         id="path86" /></clipPath><clipPath
       id="clipPath531"><path
         d="m87 89.3h32.705v-51.959h-32.705z"
         id="path89" /></clipPath></defs><g
     transform="matrix(1.3333 0 0 -1.3333 0 279.2)"
     id="g354"
     style="stroke:#000000;stroke-opacity:1"><g
       stroke-width="3"
       id="g106"
       style="stroke:#000000;stroke-opacity:1"><g
         clip-path="url(#clipPath23)"
         stroke-width="3"
         id="g104"
         style="stroke:#000000;stroke-opacity:1"><g
           stroke-width="3"
           id="g102"
           style="stroke:#000000;stroke-opacity:1"><g
             stroke-width="3"
             id="g100"
             style="stroke:#000000;stroke-opacity:1"><g
               clip-path="url(#clipPath31)"
               opacity="0"
               stroke-width="3"
               id="g98"
               style="stroke:#000000;stroke-opacity:1"><g
                 transform="translate(30.6 101)"
                 stroke-width="3"
                 id="g96"
                 style="stroke:#000000;stroke-opacity:1"><path
                   d="m0 0 3.4-3 1.2 2.4 1.5-2.4 1.6 2.301 1.1-2.301 1.5 2.7 1.7-2 1.3 2 1.2-1.599 1.5 0.899 3.2 7.601-2.7 3.899-1.7-1.2-1.4 1.4-1.2-1.599-1.2 1.599-1.2-1.4-1.4 1.301-1.7-1.701-1 1.701-2.3-1.901-0.9 1.901-2.4-2z"
                   id="path94"
                   style="stroke:#000000;stroke-opacity:1" /></g></g></g></g></g></g><g
       transform="matrix(1.1612 0 0 .98132 27.378 101.09)"
       stroke-width="3"
       id="g110"
       style="stroke:#000000;stroke-opacity:1"><path
         d="M -0.0999,-0.9998 16,-1 19.2,6.601 16.5,10.5 0.1,8.601 Z"
         fill="none"
         stroke="#ffffff"
         stroke-width="3"
         id="path108"
         style="stroke:#000000;stroke-opacity:1" /></g><g
       stroke-width="3"
       id="g168"
       style="stroke:#000000;stroke-opacity:1"><g
         id="g124"
         style="stroke:#000000;stroke-opacity:1"><g
           clip-path="url(#clipPath51)"
           stroke-width="3"
           id="g122"
           style="stroke:#000000;stroke-opacity:1"><g
             stroke-width="3"
             id="g120"
             style="stroke:#000000;stroke-opacity:1"><g
               stroke-width="3"
               id="g118"
               style="stroke:#000000;stroke-opacity:1"><g
                 clip-path="url(#clipPath59)"
                 opacity="0"
                 stroke-width="3"
                 id="g116"
                 style="stroke:#000000;stroke-opacity:1"><g
                   transform="translate(17.9 114)"
                   stroke-width="3"
                   id="g114"
                   style="stroke:#000000;stroke-opacity:1"><path
                     d="m0 0-1.7-2.6-0.7-11 1.5-3.9 7.1-0.3 1 2.4 0.2 8.8v4l-1.4 2.6z"
                     id="path112"
                     style="stroke:#000000;stroke-opacity:1" /></g></g></g></g></g></g><g
         transform="translate(17.9 114)"
         id="g128"
         style="stroke:#000000;stroke-opacity:1"><path
           d="m0 0-1.7-2.6-0.7-11 1.5-3.9 7.1-0.3 1 2.4 0.2 8.8v4l-1.4 2.6z"
           fill="none"
           stroke="#ffffff"
           stroke-width="3"
           id="path126"
           style="stroke:#000000;stroke-opacity:1" /></g><g
         id="g166"
         style="stroke:#000000;stroke-opacity:1"><g
           clip-path="url(#clipPath79)"
           id="g140"
           style="stroke:#000000;stroke-opacity:1"><g
             stroke-width="3"
             id="g138"
             style="stroke:#000000;stroke-opacity:1"><g
               stroke-width="3"
               id="g136"
               style="stroke:#000000;stroke-opacity:1"><g
                 clip-path="url(#clipPath87)"
                 opacity="0"
                 stroke-width="3"
                 id="g134"
                 style="stroke:#000000;stroke-opacity:1"><g
                   transform="translate(25.3 107.4)"
                   stroke-width="3"
                   id="g132"
                   style="stroke:#000000;stroke-opacity:1"><path
                     d="m0 0-2.5 3.7-6.6 0.3"
                     id="path130"
                     style="stroke:#000000;stroke-opacity:1" /></g></g></g></g></g><g
           clip-path="url(#clipPath107)"
           id="g152"
           style="stroke:#000000;stroke-opacity:1"><g
             stroke-width="3"
             id="g150"
             style="stroke:#000000;stroke-opacity:1"><g
               stroke-width="3"
               id="g148"
               style="stroke:#000000;stroke-opacity:1"><g
                 clip-path="url(#clipPath115)"
                 opacity="0"
                 stroke-width="3"
                 id="g146"
                 style="stroke:#000000;stroke-opacity:1"><g
                   transform="translate(25.2 102.2)"
                   stroke-width="3"
                   id="g144"
                   style="stroke:#000000;stroke-opacity:1"><path
                     d="m0 0-2.7-1.899-7 0.099"
                     id="path142"
                     style="stroke:#000000;stroke-opacity:1" /></g></g></g></g></g><g
           clip-path="url(#clipPath135)"
           id="g164"
           style="stroke:#000000;stroke-opacity:1"><g
             stroke-width="3"
             id="g162"
             style="stroke:#000000;stroke-opacity:1"><g
               stroke-width="3"
               id="g160"
               style="stroke:#000000;stroke-opacity:1"><g
                 clip-path="url(#clipPath143)"
                 opacity="0"
                 stroke-width="3"
                 id="g158"
                 style="stroke:#000000;stroke-opacity:1"><g
                   transform="translate(23.6 113.7)"
                   stroke-width="3"
                   id="g156"
                   style="stroke:#000000;stroke-opacity:1"><path
                     d="m0 0-0.8-2.6-0.3-10.799 1.6-4.101"
                     id="path154"
                     style="stroke:#000000;stroke-opacity:1" /></g></g></g></g></g></g></g><g
       stroke-width="3"
       id="g242"
       style="stroke:#000000;stroke-opacity:1"><g
         stroke-width="3"
         id="g212"
         style="stroke:#000000;stroke-opacity:1"><g
           clip-path="url(#clipPath171)"
           opacity="0"
           id="g174"
           style="stroke:#000000;stroke-opacity:1"><g
             transform="translate(25.2,111.2)"
             stroke-width="3"
             id="g172"
             style="stroke:#000000;stroke-opacity:1"><path
               d="M 0,0 C 1.1,0.6 2.3,1 3.5,1 4.5,0.9 5.3,0.3 5.7,-0.6 L 5.3,-11.2 c -0.9,-1 -2.1,-1.699 -3.5,-1.8 -0.7,0.101 -1.4,0.2 -2,0.4 z"
               id="path170"
               style="stroke:#000000;stroke-opacity:1" /></g></g><g
           clip-path="url(#clipPath191)"
           opacity="0"
           id="g180"
           style="stroke:#000000;stroke-opacity:1"><g
             transform="translate(34,108.1)"
             stroke-width="3"
             id="g178"
             style="stroke:#000000;stroke-opacity:1"><path
               d="M 0,0 C 0.3,-1.2 0.5,-2.5 0.5,-3.8 0.5,-4.7 0.4,-5.7 0,-6.5"
               id="path176"
               style="stroke:#000000;stroke-opacity:1" /></g></g><g
           clip-path="url(#clipPath211)"
           opacity="0"
           id="g186"
           style="stroke:#000000;stroke-opacity:1"><g
             transform="translate(36.3,108.6)"
             stroke-width="3"
             id="g184"
             style="stroke:#000000;stroke-opacity:1"><path
               d="m 0,0 c 0.3,-1.3 0.5,-2.5 0.6,-3.8 0,-0.9 -0.3,-3 -0.3,-3"
               id="path182"
               style="stroke:#000000;stroke-opacity:1" /></g></g><g
           clip-path="url(#clipPath231)"
           opacity="0"
           id="g192"
           style="stroke:#000000;stroke-opacity:1"><g
             transform="translate(39,108.9)"
             stroke-width="3"
             id="g190"
             style="stroke:#000000;stroke-opacity:1"><path
               d="m 0,0 c 0.3,-1.3 0.5,-2.5 0.7,-3.8 0.1,-1 0,-2 -0.3,-3"
               id="path188"
               style="stroke:#000000;stroke-opacity:1" /></g></g><g
           clip-path="url(#clipPath251)"
           opacity="0"
           id="g198"
           style="stroke:#000000;stroke-opacity:1"><g
             transform="translate(44.7,108.5)"
             stroke-width="3"
             id="g196"
             style="stroke:#000000;stroke-opacity:1"><path
               d="M 0,0 C -0.1,-1 -0.1,-2.1 0,-3.1 0.1,-4.2 0.1,-5.3 0,-6.3"
               id="path194"
               style="stroke:#000000;stroke-opacity:1" /></g></g><g
           clip-path="url(#clipPath271)"
           opacity="0"
           id="g204"
           style="stroke:#000000;stroke-opacity:1"><g
             transform="translate(46.8,108)"
             stroke-width="3"
             id="g202"
             style="stroke:#000000;stroke-opacity:1"><path
               d="m 0,0 c 0,0 0.3,-2.5 0.4,-3.7 0,-0.8 0,-1.5 -0.2,-2.2"
               id="path200"
               style="stroke:#000000;stroke-opacity:1" /></g></g><g
           clip-path="url(#clipPath291)"
           opacity="0"
           id="g210"
           style="stroke:#000000;stroke-opacity:1"><g
             transform="translate(60.6,99.9)"
             stroke-width="3"
             id="g208"
             style="stroke:#000000;stroke-opacity:1"><path
               d="m 0,0 -6.5,-4.4 v -72.9 c 0.5,0.2 1,0.4 1.6,0.5 1,0.1 2.2,0.1 3.3,0 1.9,-0.1 3.4,-0.5 4.3,-0.7 l 4.1,73.6 -0.4,1.5 z"
               id="path206"
               style="stroke:#000000;stroke-opacity:1" /></g></g></g><g
         transform="translate(60.6,99.9)"
         id="g216"
         style="stroke:#000000;stroke-opacity:1"><path
           d="m 0,0 -6.5,-4.4 v -72.9 c 0.5,0.2 1,0.4 1.6,0.5 1,0.1 2.2,0.1 3.3,0 1.9,-0.1 3.4,-0.5 4.3,-0.7 l 4.1,73.6 -0.4,1.5 z"
           fill="none"
           stroke="#ffffff"
           stroke-width="3"
           id="path214"
           style="stroke:#000000;stroke-opacity:1" /></g><g
         stroke-width="3"
         id="g224"
         style="stroke:#000000;stroke-opacity:1"><g
           clip-path="url(#clipPath311)"
           opacity="0"
           stroke-width="3"
           id="g222"
           style="stroke:#000000;stroke-opacity:1"><g
             transform="translate(59,23)"
             stroke-width="3"
             id="g220"
             style="stroke:#000000;stroke-opacity:1"><path
               d="m 0,0 c -2.2,0.2 -4.6,0.101 -5.8,-0.8 -2.5,-1.7 -0.6,-9.399 -2.1,-10.8 -1.5,-1.4 -6.8,0.1 -9.5,0.6 -2.7,0.5 -10.6,10.2 -10.6,10.2 0,0 6.4,-16.8 11.8,-18.2 3.5,-0.899 19.7,-3.8 22.8,-3.399 1.2,0 2.2,1 2.1,2.2 v 0.099 c 1.5,0.3 3,0.401 4.5,0.5 1.2,-0.099 5.3,-1.2 5.3,-1.2 0,0.901 -0.1,5 0,6.2 v 1.5 c 0,0.201 0,0.3 -0.1,0.5 0,0.201 0,0.3 -0.1,0.5 0,0.201 0,0.3 -0.1,0.5 0,0.201 0,0.3 -0.1,0.5 0,0.201 -0.1,0.3 -0.1,0.5 0,0.201 -0.1,0.3 -0.1,0.5 0,0.201 -0.1,0.3 -0.1,0.5 0,0.201 -0.1,0.3 -0.1,0.5 0,0.1 0,0.201 -0.1,0.3 -2.2,0 -8.7,0.101 -10.5,1.401 C 5,-5.899 6,-1.3 4.7,-1 4.3,-0.6 2.2,-0.199 0,0"
               id="path218"
               style="stroke:#000000;stroke-opacity:1" /></g></g></g><g
         transform="translate(59,23)"
         id="g228"
         style="stroke:#000000;stroke-opacity:1"><path
           d="m 0,0 c -2.2,0.2 -4.6,0.101 -5.8,-0.8 -2.5,-1.7 -0.6,-9.399 -2.1,-10.8 -1.5,-1.4 -6.8,0.1 -9.5,0.6 -2.7,0.5 -10.6,10.2 -10.6,10.2 0,0 6.4,-16.8 11.8,-18.2 3.5,-0.899 19.7,-3.8 22.8,-3.399 1.2,0 2.2,1 2.1,2.2 v 0.099 c 1.5,0.3 3,0.401 4.5,0.5 1.2,-0.099 5.3,-1.2 5.3,-1.2 0,0.901 -0.1,5 0,6.2 v 1.5 c 0,0.201 0,0.3 -0.1,0.5 0,0.201 0,0.3 -0.1,0.5 0,0.201 0,0.3 -0.1,0.5 0,0.201 0,0.3 -0.1,0.5 0,0.201 -0.1,0.3 -0.1,0.5 0,0.201 -0.1,0.3 -0.1,0.5 0,0.201 -0.1,0.3 -0.1,0.5 0,0.201 -0.1,0.3 -0.1,0.5 0,0.1 0,0.201 -0.1,0.3 -2.2,0 -8.7,0.101 -10.5,1.401 C 5,-5.899 6,-1.3 4.7,-1 4.3,-0.6 2.2,-0.199 0,0 Z"
           fill="none"
           stroke="#ffffff"
           stroke-width="3"
           id="path226"
           style="stroke:#000000;stroke-opacity:1" /></g><g
         stroke-width="3"
         id="g236"
         style="stroke:#000000;stroke-opacity:1"><g
           clip-path="url(#clipPath331)"
           opacity="0"
           stroke-width="3"
           id="g234"
           style="stroke:#000000;stroke-opacity:1"><g
             transform="translate(81.7,15.5)"
             stroke-width="3"
             id="g232"
             style="stroke:#000000;stroke-opacity:1"><path
               d="m 0,0 c 0,0 1.5,-1.399 1.8,-6.3 0.3,-4.899 -0.901,-7 -0.901,-7 l -5,-0.599 c 0,0 -0.099,5.599 0,6.899 -0.099,2 -0.399,3.9 -0.799,5.9 0,0 1.4,1.8 2.5,1.6 C -1.601,0.4 -0.8,0.2 0,0"
               id="path230"
               style="stroke:#000000;stroke-opacity:1" /></g></g></g><g
         transform="translate(81.7,15.5)"
         id="g240"
         style="stroke:#000000;stroke-opacity:1"><path
           d="m 0,0 c 0,0 1.5,-1.399 1.8,-6.3 0.3,-4.899 -0.901,-7 -0.901,-7 l -5,-0.599 c 0,0 -0.099,5.599 0,6.899 -0.099,2 -0.399,3.9 -0.799,5.9 0,0 1.4,1.8 2.5,1.6 C -1.601,0.4 -0.8,0.2 0,0 Z"
           fill="none"
           stroke="#ffffff"
           stroke-width="3"
           id="path238"
           style="stroke:#000000;stroke-opacity:1" /></g></g><g
       transform="translate(-0.55096,15.71)"
       stroke-width="0.75"
       id="g252"
       style="stroke:#000000;stroke-opacity:1"><g
         stroke-width="0.75"
         id="g250"
         style="stroke:#000000;stroke-opacity:1"><g
           clip-path="url(#clipPath351)"
           opacity="0"
           stroke-width="0.75"
           id="g248"
           style="stroke:#000000;stroke-opacity:1"><g
             transform="translate(35.4,112.1)"
             stroke-width="0.75"
             id="g246"
             style="stroke:#000000;stroke-opacity:1"><path
               d="m 0,0 c 0,0 -11.5,6.3 -14.1,11.1 -2.6,4.8 -4.9,5.7 -7.2,6.9 -2.3,1.2 -7.7,1.5 -7.7,1.5 0,0 6,3.1 9.5,3.2 2.4,0 4.9,-0.6 7.1,-1.5 0,0 -8.9,6.9 -11,10.6 -2.1,3.7 -2.5,8.1 -4,10.5 -1.5,2.4 -5.6,8.3 -5.6,8.3 0,0 7.6,-5.2 9.4,-5.3 2.6,-0.4 5.1,-1.4 7.2,-2.8 1.7,-1.4 3.4,-3 4.8,-4.7 0,0 -6,7.9 -8.9,15.1 -2.9,7.2 -3.3,13.4 -3.7,17 -0.4,3.6 -5.1,8.2 -5.1,8.2 0,0 5,-1.2 8.1,-3.8 1.8,-1.5 3.2,-3.4 4,-5.6 -0.1,2.7 -0.7,5.3 -1.8,7.7 -1.7,3.4 -4.1,4.3 -5,8.5 -0.6,3.4 -0.8,6.8 -0.6,10.1 0,0 3.9,-7.1 7.4,-8.9 3.5,-1.8 26.3,-8.5 28.7,-10.1 2,-1.6 3.9,-3.4 5.6,-5.3 -2.2,2.8 -3.7,6 -4.2,9.5 -0.7,5.3 1.3,5.3 0.8,7.5 -0.5,2.2 -3.4,6 -3.4,6 3.1,-2.4 5.8,-5.2 8.2,-8.3 3,-4.3 1.7,-7.5 5.7,-10.2 4,-2.7 8.7,-4.3 9.6,-5.5 1.2,-1.3 2.4,-2.5 3.7,-3.7 0,0 -4.3,4 -4.5,9.2 -0.1,3.7 0.1,7.4 0.6,11 0,0 5.2,-8.9 8.8,-10.5 3.6,-1.6 10.1,-4 15.5,-12.8 5.4,-8.8 2.4,-11.6 2.4,-11.6"
               id="path244"
               style="stroke:#000000;stroke-opacity:1" /></g></g></g></g><g
       stroke-width="3"
       id="g344"
       style="stroke:#000000;stroke-opacity:1"><g
         transform="translate(35.4,112.1)"
         id="g256"
         style="stroke:#000000;stroke-opacity:1"><path
           d="m 0,0 c 0,0 -11.5,6.3 -14.1,11.1 -2.6,4.8 -4.9,5.7 -7.2,6.9 -2.3,1.2 -7.7,1.5 -7.7,1.5 0,0 6,3.1 9.5,3.2 2.4,0 4.9,-0.6 7.1,-1.5 0,0 -8.9,6.9 -11,10.6 -2.1,3.7 -2.5,8.1 -4,10.5 -1.5,2.4 -5.6,8.3 -5.6,8.3 0,0 7.6,-5.2 9.4,-5.3 2.6,-0.4 5.1,-1.4 7.2,-2.8 1.7,-1.4 3.4,-3 4.8,-4.7 0,0 -6,7.9 -8.9,15.1 -2.9,7.2 -3.3,13.4 -3.7,17 -0.4,3.6 -5.1,8.2 -5.1,8.2 0,0 5,-1.2 8.1,-3.8 1.8,-1.5 3.2,-3.4 4,-5.6 -0.1,2.7 -0.7,5.3 -1.8,7.7 -1.7,3.4 -4.1,4.3 -5,8.5 -0.6,3.4 -0.8,6.8 -0.6,10.1 0,0 3.9,-7.1 7.4,-8.9 3.5,-1.8 26.3,-8.5 28.7,-10.1 2,-1.6 3.9,-3.4 5.6,-5.3 -2.2,2.8 -3.7,6 -4.2,9.5 -0.7,5.3 1.3,5.3 0.8,7.5 -0.5,2.2 -3.4,6 -3.4,6 3.1,-2.4 5.8,-5.2 8.2,-8.3 3,-4.3 1.7,-7.5 5.7,-10.2 4,-2.7 8.7,-4.3 9.6,-5.5 1.2,-1.3 2.4,-2.5 3.7,-3.7 0,0 -4.3,4 -4.5,9.2 -0.1,3.7 0.1,7.4 0.6,11 0,0 5.2,-8.9 8.8,-10.5 3.6,-1.6 10.1,-4 15.5,-12.8 5.4,-8.8 2.4,-11.6 2.4,-11.6"
           fill="none"
           stroke="#ffffff"
           stroke-width="3"
           id="path254"
           style="stroke:#000000;stroke-opacity:1" /></g><g
         stroke-width="3"
         id="g264"
         style="stroke:#000000;stroke-opacity:1"><g
           clip-path="url(#clipPath371)"
           opacity="0"
           stroke-width="3"
           id="g262"
           style="stroke:#000000;stroke-opacity:1"><g
             transform="translate(32.3,119.4)"
             stroke-width="3"
             id="g260"
             style="stroke:#000000;stroke-opacity:1"><path
               d="m 0,0 8.7,5.8 1.2,6.1 -8.5,6.4 3.1,6.6 7.8,-1.2 6.2,6.4 -4.7,9.1 7.9,5.4 5.4,-7 9.4,2.6 1.8,8.4 H 47 l 2.101,-8.2 7,-3.1 7.299,6.7 7.1,-4.8 -3.3,-8 4.1,-5.7 9.5,0.6 3.4,-7 -9.2,-7 -0.399,-5.7 8.699,-6 -2,-7.6 -10,0.6 -5.8,-5.7 3.9,-9.6 -6.9,-3.7 -7.399,6.2 -7.601,-3.1 -2.3,-7.9 -8.4,-0.6 -2.1,9.1 -6.4,2.4 -9.6,-6.6 -5.1,5 3.9,9.3 -4,5.8 -10.3,-1.2 z"
               id="path258"
               style="stroke:#000000;stroke-opacity:1" /></g></g></g><g
         transform="translate(32.3,119.4)"
         id="g268"
         style="stroke:#000000;stroke-opacity:1"><path
           d="m 0,0 8.7,5.8 1.2,6.1 -8.5,6.4 3.1,6.6 7.8,-1.2 6.2,6.4 -4.7,9.1 7.9,5.4 5.4,-7 9.4,2.6 1.8,8.4 H 47 l 2.101,-8.2 7,-3.1 7.299,6.7 7.1,-4.8 -3.3,-8 4.1,-5.7 9.5,0.6 3.4,-7 -9.2,-7 -0.399,-5.7 8.699,-6 -2,-7.6 -10,0.6 -5.8,-5.7 3.9,-9.6 -6.9,-3.7 -7.399,6.2 -7.601,-3.1 -2.3,-7.9 -8.4,-0.6 -2.1,9.1 -6.4,2.4 -9.6,-6.6 -5.1,5 3.9,9.3 -4,5.8 -10.3,-1.2 z"
           fill="none"
           stroke="#ffffff"
           stroke-width="3"
           id="path266"
           style="stroke:#000000;stroke-opacity:1" /></g><g
         stroke-width="3"
         id="g276"
         style="stroke:#000000;stroke-opacity:1"><g
           clip-path="url(#clipPath391)"
           opacity="0"
           stroke-width="3"
           id="g274"
           style="stroke:#000000;stroke-opacity:1"><g
             transform="translate(74.4,148.1)"
             stroke-width="3"
             id="g272"
             style="stroke:#000000;stroke-opacity:1"><path
               d="m 0,0 c 10.99,0 19.899,-8.91 19.899,-19.9 0,-10.991 -8.909,-19.9 -19.899,-19.9 -10.991,0 -19.9,8.909 -19.9,19.9 C -19.9,-8.91 -10.991,0 0,0"
               id="path270"
               style="stroke:#000000;stroke-opacity:1" /></g></g></g><g
         transform="translate(74.4,148.1)"
         id="g280"
         style="stroke:#000000;stroke-opacity:1"><path
           d="m 0,0 c 10.99,0 19.899,-8.91 19.899,-19.9 0,-10.991 -8.909,-19.9 -19.899,-19.9 -10.991,0 -19.9,8.909 -19.9,19.9 C -19.9,-8.91 -10.991,0 0,0 Z"
           fill="none"
           stroke="#ffffff"
           stroke-width="3"
           id="path278"
           style="stroke:#000000;stroke-opacity:1" /></g><g
         stroke-width="3"
         id="g294"
         style="stroke:#000000;stroke-opacity:1"><g
           clip-path="url(#clipPath411)"
           opacity="0"
           id="g286"
           style="stroke:#000000;stroke-opacity:1"><g
             transform="translate(42,108.7)"
             stroke-width="3"
             id="g284"
             style="stroke:#000000;stroke-opacity:1"><path
               d="M 0,0 C 0.3,-1.2 0.5,-2.4 0.5,-3.6 0.4,-4.7 0.3,-5.7 0,-6.8"
               id="path282"
               style="stroke:#000000;stroke-opacity:1" /></g></g><g
           clip-path="url(#clipPath431)"
           opacity="0"
           id="g292"
           style="stroke:#000000;stroke-opacity:1"><g
             transform="translate(116.5,31.8)"
             stroke-width="3"
             id="g290"
             style="stroke:#000000;stroke-opacity:1"><path
               d="m 0,0 c 0,0 -36.4,57.199 -36.4,60.1 -0.2,2.099 0.9,4.099 2.8,5 1.2,0.5 4.4,1.599 6.5,-0.701 C -25,62.1 8.9,6.6 10.8,6 12,5.6 13,5 13.9,4.1 14.3,4.899 15.3,5.3 16.1,4.899 17.8,4.3 18,2.3 18.5,1.3 18.9,0.699 19.5,0.199 20.2,0 L 3,-22.301 c 0,0 -2.1,9.5 -2.4,12.901 C 0.3,-6 0,0 0,0"
               id="path288"
               style="stroke:#000000;stroke-opacity:1" /></g></g></g><g
         transform="translate(116.5,31.8)"
         id="g298"
         style="stroke:#000000;stroke-opacity:1"><path
           d="m 0,0 c 0,0 -36.4,57.199 -36.4,60.1 -0.2,2.099 0.9,4.099 2.8,5 1.2,0.5 4.4,1.599 6.5,-0.701 C -25,62.1 8.9,6.6 10.8,6 12,5.6 13,5 13.9,4.1 14.3,4.899 15.3,5.3 16.1,4.899 17.8,4.3 18,2.3 18.5,1.3 18.9,0.699 19.5,0.199 20.2,0 L 3,-22.301 c 0,0 -2.1,9.5 -2.4,12.901 C 0.3,-6 0,0 0,0 Z"
           fill="none"
           stroke="#ffffff"
           stroke-width="3"
           id="path296"
           style="stroke:#000000;stroke-opacity:1" /></g><g
         stroke-width="3"
         id="g306"
         style="stroke:#000000;stroke-opacity:1"><g
           clip-path="url(#clipPath451)"
           opacity="0"
           stroke-width="3"
           id="g304"
           style="stroke:#000000;stroke-opacity:1"><g
             transform="translate(129.6,18.7)"
             stroke-width="3"
             id="g302"
             style="stroke:#000000;stroke-opacity:1"><path
               d="M 0,0 9.4,13 10.7,10.8 9.601,9.9 c 0,0 6.5,-8 7.099,-12.5 0.601,-4.5 -1.8,-6.5 -1.8,-6.5 0,0 -7.799,8.1 -9.2,8.5 C 4.601,-0.399 3.4,-0.5 2.4,-1 Z"
               id="path300"
               style="stroke:#000000;stroke-opacity:1" /></g></g></g><g
         transform="translate(129.6,18.7)"
         id="g310"
         style="stroke:#000000;stroke-opacity:1"><path
           d="M 0,0 9.4,13 10.7,10.8 9.601,9.9 c 0,0 6.5,-8 7.099,-12.5 0.601,-4.5 -1.8,-6.5 -1.8,-6.5 0,0 -7.799,8.1 -9.2,8.5 C 4.601,-0.399 3.4,-0.5 2.4,-1 Z"
           fill="none"
           stroke="#ffffff"
           stroke-width="3"
           id="path308"
           style="stroke:#000000;stroke-opacity:1" /></g><g
         stroke-width="3"
         id="g318"
         style="stroke:#000000;stroke-opacity:1"><g
           clip-path="url(#clipPath471)"
           opacity="0"
           stroke-width="3"
           id="g316"
           style="stroke:#000000;stroke-opacity:1"><g
             transform="translate(121,7.6002)"
             stroke-width="3"
             id="g314"
             style="stroke:#000000;stroke-opacity:1"><path
               d="M 0,0 C 0,0 6.6,9.7 7.5,9.5 8.2,9.2 8.8,8.899 9.4,8.399 c 0,0 -1.3,-1 0,-2.5 C 10.7,4.399 18,-3.8 18,-3.8 18,-3.8 7,-4.8 5.6,-4.5 4.2,-4.2 0,0 0,0"
               id="path312"
               style="stroke:#000000;stroke-opacity:1" /></g></g></g><g
         transform="translate(121,7.6002)"
         id="g322"
         style="stroke:#000000;stroke-opacity:1"><path
           d="M 0,0 C 0,0 6.6,9.7 7.5,9.5 8.2,9.2 8.8,8.899 9.4,8.399 c 0,0 -1.3,-1 0,-2.5 C 10.7,4.399 18,-3.8 18,-3.8 18,-3.8 7,-4.8 5.6,-4.5 4.2,-4.2 0,0 0,0 Z"
           fill="none"
           stroke="#ffffff"
           stroke-width="3"
           id="path320"
           style="stroke:#000000;stroke-opacity:1" /></g><g
         stroke-width="3"
         id="g342"
         style="stroke:#000000;stroke-opacity:1"><g
           clip-path="url(#clipPath491)"
           opacity="0"
           id="g328"
           style="stroke:#000000;stroke-opacity:1"><g
             transform="translate(127.4,33.7)"
             stroke-width="3"
             id="g326"
             style="stroke:#000000;stroke-opacity:1"><path
               d="m 0,0 -0.9,-1.1 3.9,-3.299 0.8,1 0.899,-1 -6.199,-7.701 -1,0.9 0.8,1.4 -3.8,3.6 -0.7,-0.8 -1,1.2 6,6.7 z"
               id="path324"
               style="stroke:#000000;stroke-opacity:1" /></g></g><g
           clip-path="url(#clipPath511)"
           opacity="0"
           id="g334"
           style="stroke:#000000;stroke-opacity:1"><g
             transform="translate(90.5,91.8)"
             stroke-width="3"
             id="g332"
             style="stroke:#000000;stroke-opacity:1"><path
               d="m 0,0 c 0,0 31.1,-51.2 31.4,-53 0.3,-1.801 0,-3.101 -1.4,-3.7 -1.4,-0.601 -2.8,-0.5 -4.5,1.7 -1.7,2.199 -30.9,51 -30.9,51 0,0 2.7,0.6 3.2,1.199 z"
               id="path330"
               style="stroke:#000000;stroke-opacity:1" /></g></g><g
           clip-path="url(#clipPath531)"
           opacity="0"
           id="g340"
           style="stroke:#000000;stroke-opacity:1"><g
             transform="translate(90.7,89.3)"
             stroke-width="3"
             id="g338"
             style="stroke:#000000;stroke-opacity:1"><path
               d="m 0,0 c 0,0 28.399,-48.601 28.7,-49.301 0.3,-0.699 0.5,-1.8 0,-2.399 -0.5,-0.601 -2.2,-0.101 -2.801,0.899 C 25.3,-49.801 -3.7,-2.5 -3.7,-2.5 -3,-2.301 -2.3,-2 -1.7,-1.601 -1.101,-1.101 0,0 0,0"
               id="path336"
               style="stroke:#000000;stroke-opacity:1" /></g></g></g></g><g
       transform="translate(79.7,140.7)"
       stroke-width="0.75"
       id="g348"
       style="stroke:#000000;stroke-opacity:1;fill:none"><path
         d="M 0,0 C 0.2,0 0.399,0 0.5,-0.1 1.7,-0.3 2.8,-0.7 3.8,-1.4 4.899,-2.2 5.8,-3.1 6.399,-4.3 6.8,-5.1 7.1,-6 7.2,-7 c 0.199,-3.1 -1.1,-5.6 -3.6,-7.3 -0.8,-0.5 -1.4,-0.8 -2.4,-1 2.5,-3.2 5,-6.5 7.4,-9.7 H 6 c -0.101,0 -0.101,0 -0.2,0.1 -2.5,3.2 -4.901,6.5 -7.401,9.7 0,0.1 -0.099,0.1 -0.099,0.2 v 1.9 h 2 c 0.7,0 1.3,0.2 1.9,0.5 1.5,1 2.4,2.4 2.699,4.1 C 5.2,-6.3 4.3,-4.3 2.3,-3.1 1.5,-2.6 0.7,-2.4 -0.101,-2.3 H -8.1 V -6.7 H -4 v -8.5 H -8.1 V -25 h -8.3 v 9.6 c 0,0.2 0,0.2 -0.2,0.2 h -4.3 v 8.5 h 6.7 v -2.2 h -4.4 V -13 h 4.5 v -9.8 h 3.9 v 9.8 h 4 c 0.1,0 0.2,0 0.2,0.2 v 4 h -4.1 V 0.1 C -6.9,0 -3.5,0 0,0"
         fill="#ffffff"
         fill-rule="evenodd"
         id="path346"
         style="stroke:#000000;stroke-opacity:1;fill:none" /></g></g></svg>
